<?xml version="1.0" encoding="UTF-8"?><svg xmlns="http://www.w3.org/2000/svg" viewBox="0 0 69.18 128"><defs><style>.d{fill:#fff;}</style></defs><g id="a"/><g id="b"><g id="c"><path class="d" d="M46.36,99.02c0,8.32,0,16.64,0,24.96,0,3.15-.86,4.01-4.03,4.01-6.3,0-12.61,0-18.91,0-3.43,0-4.13-.69-4.13-4.07,0-16.58-.02-33.15,.03-49.73,0-1.51-.3-2.05-1.93-2-4.66,.12-9.33,.05-13.99,.04-2.57-.01-3.37-.79-3.38-3.4-.03-6.43-.03-12.86,0-19.29,.01-2.7,.82-3.45,3.55-3.46,4.73-.01,9.45-.04,14.18,.02,1.21,.02,1.57-.28,1.57-1.54,0-5.67-.33-11.36,.2-17.01,.86-9.12,4.41-16.88,12.13-22.26C37.23,1.41,43.59,.1,50.25,.03c5.1-.06,10.21-.01,15.32,.02,2.76,.02,3.6,.88,3.61,3.63,.01,5.86,.01,11.72,0,17.58,0,2.71-.91,3.59-3.64,3.61-3.84,.02-7.69-.03-11.53,.05-5.25,.11-7.48,2.31-7.59,7.5-.08,4.1,.02,8.19-.09,12.29-.03,1.28,.47,1.39,1.52,1.39,5.67-.04,11.34-.03,17.02-.02,2.69,0,3.52,.82,3.53,3.47,.01,6.43,.01,12.86,0,19.29,0,2.58-.8,3.38-3.38,3.39-5.67,.02-11.35,.05-17.02-.03-1.34-.02-1.67,.37-1.66,1.68,.06,8.38,.03,16.76,.03,25.15Z"/></g></g></svg>