<?xml version="1.0" encoding="UTF-8"?><svg xmlns="http://www.w3.org/2000/svg" viewBox="0 0 89.34 128"><defs><style>.d{fill:#fff;}</style></defs><g id="a"/><g id="b"><g id="c"><g><path class="d" d="M10.45,16.13c.28-.66,.8-1.16,1.28-1.67,2.72-2.93,5.75-5.5,9.14-7.63,3.4-2.13,7.02-3.79,10.87-4.95C35.63,.71,39.59,.08,43.66,0c4.12-.07,8.17,.33,12.16,1.38,3.65,.96,7.12,2.36,10.43,4.17,4.2,2.3,7.89,5.26,11.15,8.74,2.53,2.7,4.61,5.72,6.44,8.94,1.24,2.19,2.26,4.46,3.08,6.83,.62,1.81,1.11,3.66,1.51,5.54,.82,3.79,.99,7.61,.88,11.46-.07,2.37-.29,4.74-.73,7.07-.48,2.53-1.09,5.04-1.95,7.49-.93,2.64-2.02,5.21-3.34,7.67-1.48,2.78-3.2,5.42-5.02,7.99-1.91,2.7-3.94,5.32-5.98,7.92-2.26,2.88-4.59,5.7-6.83,8.6-1.73,2.25-3.41,4.53-5.04,6.86-1.36,1.94-2.69,3.9-3.95,5.9-1.22,1.93-2.31,3.94-3.25,6.03-.94,2.08-1.79,4.2-2.52,6.37-.49,1.46-.93,2.94-1.44,4.39-.39,1.1-.8,2.19-1.47,3.17-1.34,1.98-5.35,2.12-6.7-.69-.84-1.76-1.38-3.61-2-5.44-.74-2.2-1.51-4.39-2.43-6.53-.88-2.03-1.86-4.01-2.98-5.92-1.04-1.77-2.17-3.49-3.33-5.19-1.24-1.83-2.54-3.62-3.83-5.42-.49-.68-1.02-1.34-1.53-2.01-.14-.19-.33-.35-.23-.63,.23-.24,.48-.46,.7-.72,1.97-2.35,3.93-4.71,5.91-7.07,2.06-2.45,4.13-4.9,6.19-7.35,2.13-2.53,4.26-5.05,6.39-7.58,1.8-2.14,3.59-4.29,5.39-6.43,1.04-1.24,2.15-2.43,3.14-3.71,1.02-1.32,2.31-2.44,3.02-3.99,.85-.76,1.6-1.6,2.33-2.47,1.36-1.62,2.42-3.42,3.06-5.44,.84-2.63,1.06-5.32,.62-8.06-.47-2.91-1.59-5.54-3.42-7.82-2.86-3.57-6.55-5.72-11.13-6.35-3.56-.49-6.89,.13-10.09,1.69-1.72,.84-3.13,2.07-4.45,3.41-.27,.28-.51,.61-.92,.71-.26,.08-.39-.12-.55-.26-1.57-1.34-3.19-2.64-4.75-4-1.58-1.39-3.22-2.71-4.84-4.06-1.39-1.16-2.79-2.32-4.18-3.49-1.4-1.18-2.78-2.38-4.2-3.54-.84-.69-1.62-1.45-2.54-2.05Z"/><path class="d" d="M55.49,57.87c-.7,1.56-1.99,2.68-3.02,3.99-.99,1.28-2.1,2.47-3.14,3.71-1.8,2.14-3.59,4.29-5.39,6.43-2.13,2.53-4.26,5.05-6.39,7.58-2.06,2.45-4.13,4.9-6.19,7.35-1.97,2.35-3.93,4.71-5.91,7.07-.21,.25-.46,.48-.7,.72-.49-.03-.67-.48-.89-.78-2.57-3.4-5.29-6.68-7.92-10.03-1.3-1.66-2.62-3.3-3.84-5.02-1.36-1.92-2.73-3.84-3.96-5.86-1.08-1.76-2.14-3.54-3.03-5.4-.86-1.8-1.61-3.65-2.27-5.54-.76-2.18-1.42-4.4-1.85-6.67-.49-2.6-.85-5.21-.95-7.86C-.05,45.11,0,42.67,.2,40.23c.18-2.27,.64-4.49,1.18-6.7,.41-1.68,.94-3.31,1.56-4.92,.9-2.36,2-4.63,3.31-6.8,1.13-1.86,2.35-3.66,3.73-5.34,.12-.15,.19-.4,.48-.34,.91,.6,1.69,1.37,2.54,2.05,1.42,1.16,2.8,2.36,4.2,3.54,1.39,1.17,2.79,2.33,4.18,3.49,1.62,1.35,3.26,2.67,4.84,4.06,1.55,1.37,3.17,2.66,4.75,4,.16,.14,.29,.34,.55,.26-.03,.29-.19,.5-.36,.73-2.32,3.07-3.45,6.53-3.47,10.38,0,2.03,.32,3.98,1.02,5.87,.69,1.87,1.7,3.59,2.99,5.13,1.04,1.23,2.23,2.32,3.58,3.2,1.23,.8,2.55,1.39,3.95,1.87,1.69,.58,3.4,.9,5.16,.94,1.31,.03,2.6-.13,3.9-.41,1.49-.32,2.86-.88,4.22-1.52,1.07-.5,1.96-1.28,2.99-1.84Z"/></g></g></g></svg>