<?xml version="1.0" encoding="UTF-8"?><svg xmlns="http://www.w3.org/2000/svg" viewBox="0 0 127.94 128"><defs><style>.d{fill:#fff;}</style></defs><g id="a"/><g id="b"><g id="c"><g><path class="d" d="M127.91,64.01c0,9.3,.08,18.6-.02,27.89-.14,13.67-6.02,24.19-17.75,31.28-5.49,3.31-11.55,4.75-17.95,4.75-18.82,0-37.63,.18-56.45-.05-15.18-.19-26.17-7.42-32.72-21.13C.86,102.23,.02,97.33,.02,92.31c0-18.9-.05-37.81,.01-56.71C.08,19.9,9.67,6.69,24.52,1.74,28.13,.54,31.86,.05,35.66,.06c18.86,0,37.72-.16,56.58,.05,15.22,.17,26.15,7.45,32.68,21.17,2.19,4.61,2.99,9.6,2.98,14.7,0,9.34,0,18.68,0,28.03Zm-63.98,52.57c9.21,0,18.42,0,27.63,0,2.06,0,4.12-.1,6.14-.58,11.55-2.78,18.84-12.05,18.85-24.06,.02-18.64,0-37.28,0-55.92,0-1.97-.14-3.95-.6-5.88-2.72-11.38-12.1-18.73-24-18.74-18.64-.02-37.28,0-55.92,0-2.11,0-4.21,.14-6.26,.65-11.01,2.76-18.34,12.1-18.38,23.64-.06,18.86-.03,37.72,0,56.58,.01,7.38,2.74,13.59,8.32,18.46,4.71,4.11,10.27,5.87,16.46,5.86,9.25-.01,18.51,0,27.76,0Z"/><path class="d" d="M63.94,96.93c-18.14-.02-33-14.94-32.91-33.04,.09-18.15,14.86-32.9,32.94-32.87,18.15,.02,32.99,14.91,32.92,33.03-.07,18.13-14.87,32.91-32.94,32.89Zm.06-11.37c11.93-.06,21.59-9.77,21.54-21.65-.05-11.9-9.8-21.6-21.65-21.53-11.93,.07-21.58,9.77-21.54,21.64,.04,11.9,9.79,21.61,21.64,21.55Z"/><path class="d" d="M98.26,38.02c-4.54-.01-8.27-3.75-8.27-8.29,0-4.55,3.72-8.28,8.26-8.3,4.59-.02,8.38,3.79,8.33,8.37-.05,4.55-3.79,8.25-8.33,8.23Z"/></g></g></g></svg>