<?xml version="1.0" encoding="UTF-8"?><svg xmlns="http://www.w3.org/2000/svg" viewBox="0 0 133.52 128"><defs><style>.d{fill:#fff;}</style></defs><g id="a"/><g id="b"><g id="c"><g><path class="d" d="M74.72,51.64c9.12-10.92,20.36-14.06,33.48-11.42,13.99,2.82,23.37,13.83,24.59,29.69,1.4,18.18,.31,36.43,.61,54.65,.05,2.82-1.48,2.86-3.53,2.84-7.16-.06-14.34-.17-21.49,.05-2.95,.09-3.65-.86-3.62-3.69,.14-13.39,.06-26.79,.06-40.19,0-2.96-.11-5.89-.69-8.83-1.74-8.84-6.94-13.34-14.97-12.79-7.81,.53-14.09,6.93-14.27,15.18-.26,11.99-.04,23.99-.2,35.98-.06,4.62,2.04,10.69-.9,13.46-2.9,2.72-8.91,.63-13.55,.78-3.42,.11-6.86-.13-10.28,.07-2.86,.17-4.06-.46-4.04-3.74,.14-26.32,.12-52.65,.04-78.97,0-2.62,.69-3.51,3.38-3.45,7.01,.17,14.03,.25,21.02-.02,3.48-.14,4.88,.82,4.42,4.38-.26,1.97-.05,4-.05,6Z"/><path class="d" d="M30.12,84.86c0,12.91-.1,25.83,.07,38.74,.04,3.1-.91,3.95-3.92,3.86-7.15-.21-14.31-.15-21.47-.02-2.43,.04-3.21-.74-3.21-3.18,.07-26.61,.07-53.21,0-79.82,0-2.46,.84-3.19,3.24-3.15,7.16,.13,14.32,.2,21.47-.03,3.09-.1,3.91,.89,3.88,3.91-.15,13.22-.07,26.45-.07,39.67Z"/><path class="d" d="M15.96,29.51C6.64,29.57,.08,23.61,0,14.99-.08,6.11,6.39,.03,15.97,0c9.55-.03,16.04,6.05,15.99,14.97-.05,8.54-6.58,14.48-15.99,14.54Z"/></g></g></g></svg>