<?xml version="1.0" encoding="UTF-8"?><svg xmlns="http://www.w3.org/2000/svg" viewBox="0 0 155.57 128"><defs><style>.d{fill:#fff;}</style></defs><g id="a"/><g id="b"><g id="c"><path class="d" d="M0,114.19c16.92,.68,32.13-3.42,46.1-13.89-14.65-1.59-24.47-8.83-29.85-22.48,4.74,.39,9.1,.62,13.83-.61-15.65-5.05-24.13-15.41-25.25-32,4.58,1.79,8.76,3.72,13.87,3.52C4.78,36.74,1.84,22.66,9.39,5.84c2.11,2.28,3.85,4.25,5.69,6.11,16.1,16.29,35.51,25.55,58.39,27.5,2.25,.19,2.62-.21,2.27-2.54-2.03-13.37,4.93-26.89,16.83-33.16,12.06-6.36,26.72-4.52,36.8,4.77,1.39,1.28,2.59,1.59,4.36,1.15,6.04-1.5,11.75-3.84,17.84-7.12-2.6,7.62-6.94,12.95-13.5,17.3,6.15-.2,11.34-2.4,17.5-4.21-3.87,5.86-7.93,10.26-12.77,13.9-2.07,1.56-2.85,3.14-2.83,5.82,.19,38.22-24.34,77.78-65.67,88.99-25.59,6.94-50.07,4.06-73.11-9.41-.41-.24-.79-.51-1.19-.76Z"/></g></g></svg>