<?xml version="1.0" encoding="UTF-8"?><svg xmlns="http://www.w3.org/2000/svg" viewBox="0 0 182.84 128"><defs><style>.d{fill:#fff;}</style></defs><g id="a"/><g id="b"><g id="c"><path class="d" d="M90.59,128c-19.86-.53-41.16-.29-62.35-2.67-16.58-1.86-23.6-8.19-25.76-24.65C-.86,75.21-.95,49.69,3,24.26,4.93,11.78,11.84,4.99,24.4,2.94,36.05,1.05,47.84,.79,59.59,.49c29.6-.77,59.21-.84,88.77,1.34,4.14,.31,8.3,.77,12.37,1.54,10.56,1.99,17.26,9.21,19.21,20.69,3.01,17.67,3.28,35.48,2.53,53.33-.37,8.79-.95,17.56-2.48,26.25-2.29,13.09-9.87,20.22-23.18,21.58-4.73,.48-9.46,1.05-14.2,1.32-16.86,.96-33.74,1.22-52.04,1.48Zm-17.26-36.71c16-9.22,31.49-18.15,47.51-27.37-16.13-9.28-31.64-18.21-47.51-27.34v54.71Z"/></g></g></svg>