<svg xmlns="http://www.w3.org/2000/svg" viewBox="0 0 367.797 183.099"><g id="Layer_2" data-name="Layer 2"><g id="Layer_1-2" data-name="Layer 1"><path d="M86.642,32.894c-4.95,3.749-5.8,11.793-6.06,17.48-.369,8.1,1.806,47.739-.963,46.693C77.067,96,74.091,84.657,70.6,78.82c-2.983-4.988-9.444-12.724-16.137-9.874-3.275,1.395-4.873,4.986-6,8.13a72.027,72.027,0,0,0-3,12.773c-.627,3.871-.54,7.678-1.991,11.394-.271.693-.9,2.24-1.819,2.236-.021,0-.041,0-.062,0-1.032-.076-1.4-1.941-1.683-2.663-.433-1.09-.777-2.213-1.146-3.326-.648-1.954-1.187-3.943-1.668-5.945-.954-3.972-1.678-7.994-2.577-11.978-2.192-9.72-4.415-19.447-6.884-29.121q-1.656-6.486-3.384-12.953c-.978-3.651-1.676-7.27-3.673-10.576-2.287-3.786-6.5-6.757-10.89-6.244C5.392,21.173,2,24.91.751,29.05c-2.587,8.585,2.169,18.833,4.334,27.1,2.391,9.129,4.885,18.239,7.174,27.395,3.709,14.164,6.127,29.891,12.058,43.235,2.033,4.575,3.89,9.229,7.124,13.1,3.091,3.7,7.763,7.32,12.879,6.54,4.087-.624,7.225-4.009,9.209-7.635,2.624-4.795,3.758-10.167,4.866-15.466.546-2.612.306-7.407,2.358-9.386,3.612-3.483,6.035,2.8,7.193,5.63,4.581,11.183,5.829,23.839,12.9,33.931,3.042,4.343,8.033,8.262,13.2,7.054,11.278-2.638,9.755-22.767,9.952-31.393.375-16.448.932-32.892,1.419-49.337.247-8.347.5-16.694.657-25.043.124-6.4.481-13.107-3.614-18.5C99,31.714,91.615,29.128,86.642,32.894Z" fill="#fcf0ce"/><path d="M367.788,71.112c-.077-4.717.5-10.963-3.215-14.575-4.016-3.91-12.556-3.92-16.9-.706-3.306,2.444-4.791,6.652-5.48,10.7-.792,4.655-.774,9.415-1.452,14.089-1.058,7.29-4.4,13.6-11,17.256-4.015,2.224-9.713,2.8-12.669-.709a9.048,9.048,0,0,1-1.675-6.946,34.291,34.291,0,0,1,2.042-7.047c2.863-8.128,5.143-17.567,3.922-26.212-.553-3.917-2.045-7.951-5.622-10.051-4.546-2.667-12.5-1.956-16.155,1.888-1.686,1.77-2.462,4.193-3.164,6.534-3.289,10.979-6.071,22.4-4.883,33.8,1.522,14.61,10.119,25.578,23.269,31.659a22.493,22.493,0,0,0,13.824,2.078c1.5-.278,4.089-1.423,5.348-.639-2.378,8.8-10,17.58-16.625,23.555-12.563,11.331-27.152,12.744-42.4,5.837-7.582-3.435-14.652-7.978-22.418-10.975-4.464-1.723-9.853-2.81-13.761-.05-2.918,2.062-4.219,5.9-3.921,9.46a20.32,20.32,0,0,0,4.043,9.789c5.642,8,14.178,13.614,23.288,17.194,15.042,5.911,31.317,8.431,46.918,3.232,13.1-4.367,23.918-13.744,31.875-24.859,13.464-18.81,19.7-40.788,24.47-63.157A94.409,94.409,0,0,0,367.788,71.112Z" fill="#fcf0ce"/><path d="M180.754,97.565c-.692-4.391-.9-8.856-1.357-13.285-1.109-10.73-2.033-21.507-3.549-32.179-.588-4.142-1.907-8.407-4.97-11.256-3.343-3.11-9.232-4.634-13.648-3.245-7.968,2.506-6.554,12.875-5.876,19.277.906,8.542,3.02,16.9,4.1,25.414-7.048.513-13.942,1.278-20.631,3.5.269-.089-.06-8.04-.055-8.608.138-13.806.933-27.65.781-41.447-.042-3.868.209-8.092-.887-11.832-1.662-5.67-6.578-8.691-12.394-7.913-4,.536-7.839,4.228-8.1,7.929q-.356,4.968-.5,9.95c-.307,10.085-.5,20.174-.865,30.256-.361,10-1.069,19.991-1.264,29.994l-.008.4c-.242,13.009-.412,26.2,1.294,39.117.74,5.6,2.151,11.523,6.332,15.555A9.625,9.625,0,0,0,127.114,152c3.506-.533,6.323-3.35,7.822-6.564,1.745-3.739,2.172-8.144,2.531-12.206a85.993,85.993,0,0,0-.5-19.459c-.245-1.756-.817-3.878,1.1-4.761a96.236,96.236,0,0,1,19.371-6.248,2.165,2.165,0,0,1,.6.049c.044.258.082.452.109.648.567,4.151.6,8.41.767,12.589.1,2.523.155,5.051.317,7.571.3,4.706-.444,9.267,3.88,13.309a13.381,13.381,0,0,0,2.816,1.988,16.37,16.37,0,0,0,10.283,1.961,10.568,10.568,0,0,0,5.509-2.612,13.006,13.006,0,0,0,3.371-6.3c1.724-6.63-.15-13.357-1.394-19.9C182.78,107.22,181.522,102.432,180.754,97.565Z" fill="#fcf0ce"/><path d="M245.285,108.265c15.346-17.711,14.856-48.656-5.718-62.518-10.574-7.125-22.086-9.369-33.731-3.312A48.754,48.754,0,0,0,185.1,63.522a31.526,31.526,0,0,0-3.249,13.357,54.139,54.139,0,0,0,2,15.663,51.9,51.9,0,0,0,6.965,16.037A30.263,30.263,0,0,0,206.7,120.6C220.851,125.043,235.675,119.357,245.285,108.265ZM228.8,94.987c-3.576,3.582-9.115,5.533-13.867,3.789-6.154-2.259-9.318-8.52-9.955-14.728-.784-7.651,1.82-17.374,9.255-20.989a14.263,14.263,0,0,1,5.719-1.425,14.769,14.769,0,0,1,13.59,7.816C237.772,77.541,235.107,88.669,228.8,94.987Z" fill="#fcf0ce"/><path d="M280.614,142.432c5.4,1.738,11.955,3.3,17.2.267a11.1,11.1,0,0,0,3.3-16.274c-5.175-6.876-17.592-6.665-19.144-16.572-1.917-12.23,1.61-26.13,3.542-38.2,2.073-12.941,4.3-25.9,4.976-39.005.356-6.908.942-15.926-7.575-17.616a14.388,14.388,0,0,0-14.821,6.738c-2.508,4.545-2.975,9.9-3.433,15.065-1.414,15.959-3.236,31.885-5.68,47.718a175.607,175.607,0,0,0-2.335,19.573,53.237,53.237,0,0,0,1.9,17.541C261.86,132.773,269.9,138.986,280.614,142.432Z" fill="#fcf0ce"/><path d="M254.854,13.676a9.142,9.142,0,0,0-3.568-6.366,17.578,17.578,0,0,0-4.919-2.223c-9.776-3.1-20.121-3.887-30.358-4.5C203.3-.182,190.09-.609,177.561,2.025c-7.333,1.541-15.35,2.584-22.218,5.783-4.669,2.174-11.425,6.5-8.51,12.65,2.145,4.529,9.53,6.7,14.038,7.515,5.3.962,10.733.788,16.121.781,12.884-.018,25.755.917,38.642.669,10.918-.209,24.468-.294,34.1-5.874C253.573,21.324,255.493,17.809,254.854,13.676Zm-11.9,1.714c-7.541,2.2-15.511,2.285-23.365,2.314-14.159.051-28.316-.031-42.474-.114a165.031,165.031,0,0,1-16.94-1.292c-.21-.036-3.522-.375-3.526-.944,0-.587,3.5-1.339,3.917-1.461,2.4-.7,4.825-1.345,7.223-2.064A89.614,89.614,0,0,1,186.8,8.335a166.986,166.986,0,0,1,35.723,1.642c4.064.578,8.106,1.244,12.172,1.8,2.828.386,7.187.618,9.282,2.859A1.476,1.476,0,0,1,242.954,15.39Z" fill="#f5c143"/></g></g></svg>