<?xml version="1.0" encoding="UTF-8"?>
<svg id="Layer_2" data-name="Layer 2" xmlns="http://www.w3.org/2000/svg" viewBox="0 0 367.79 183.09">
  <defs>
    <style>
      .cls-1 {
        fill: #007148;
      }

      .cls-2 {
        fill: #f5c143;
      }
    </style>
  </defs>
  <g id="Layer_1-2" data-name="Layer 1">
    <g id="Layer_2-2" data-name="Layer 2">
      <g id="Layer_1-2" data-name="Layer 1-2">
        <path class="cls-1" d="M86.64,32.89c-4.95,3.75-5.8,11.79-6.06,17.48-.37,8.1,1.81,47.74-.96,46.69-2.55-1.07-5.53-12.41-9.02-18.25-2.98-4.99-9.44-12.72-16.14-9.87-3.28,1.39-4.87,4.99-6,8.13-1.39,4.16-2.39,8.43-3,12.77-.63,3.87-.54,7.68-1.99,11.39-.27,.69-.9,2.24-1.82,2.24h-.06c-1.03-.08-1.4-1.94-1.68-2.66-.43-1.09-.78-2.21-1.15-3.33-.65-1.95-1.19-3.94-1.67-5.94-.95-3.97-1.68-7.99-2.58-11.98-2.19-9.72-4.42-19.45-6.88-29.12-1.1-4.32-2.23-8.64-3.38-12.95-.98-3.65-1.68-7.27-3.67-10.58-2.29-3.79-6.5-6.76-10.89-6.24-4.29,.5-7.69,4.24-8.93,8.38-2.59,8.58,2.17,18.83,4.33,27.1,2.39,9.13,4.89,18.24,7.17,27.39,3.71,14.16,6.13,29.89,12.06,43.24,2.03,4.57,3.89,9.23,7.12,13.1,3.09,3.7,7.76,7.32,12.88,6.54,4.09-.62,7.22-4.01,9.21-7.63,2.62-4.79,3.76-10.17,4.87-15.47,.55-2.61,.31-7.41,2.36-9.39,3.61-3.48,6.03,2.8,7.19,5.63,4.58,11.18,5.83,23.84,12.9,33.93,3.04,4.34,8.03,8.26,13.2,7.05,11.28-2.64,9.75-22.77,9.95-31.39,.38-16.45,.93-32.89,1.42-49.34,.25-8.35,.5-16.69,.66-25.04,.12-6.4,.48-13.11-3.61-18.5-3.46-4.56-10.85-7.15-15.82-3.38Z"/>
        <path class="cls-1" d="M367.79,71.11c-.08-4.72,.5-10.96-3.21-14.58-4.02-3.91-12.56-3.92-16.9-.71-3.31,2.44-4.79,6.65-5.48,10.7-.79,4.65-.77,9.42-1.45,14.09-1.06,7.29-4.4,13.6-11,17.26-4.02,2.22-9.71,2.8-12.67-.71-1.49-1.99-2.09-4.5-1.67-6.95,.43-2.42,1.11-4.78,2.04-7.05,2.86-8.13,5.14-17.57,3.92-26.21-.55-3.92-2.05-7.95-5.62-10.05-4.55-2.67-12.5-1.96-16.15,1.89-1.69,1.77-2.46,4.19-3.16,6.53-3.29,10.98-6.07,22.4-4.88,33.8,1.52,14.61,10.12,25.58,23.27,31.66,4.27,2.14,9.11,2.87,13.82,2.08,1.5-.28,4.09-1.42,5.35-.64-2.38,8.8-10,17.58-16.62,23.56-12.56,11.33-27.15,12.74-42.4,5.84-7.58-3.43-14.65-7.98-22.42-10.98-4.46-1.72-9.85-2.81-13.76-.05-2.92,2.06-4.22,5.9-3.92,9.46,.46,3.56,1.85,6.94,4.04,9.79,5.64,8,14.18,13.61,23.29,17.19,15.04,5.91,31.32,8.43,46.92,3.23,13.1-4.37,23.92-13.74,31.88-24.86,13.46-18.81,19.7-40.79,24.47-63.16,1.57-6.94,2.36-14.03,2.34-21.15Z"/>
        <path class="cls-1" d="M180.75,97.56c-.69-4.39-.9-8.86-1.36-13.29-1.11-10.73-2.03-21.51-3.55-32.18-.59-4.14-1.91-8.41-4.97-11.26-3.34-3.11-9.23-4.63-13.65-3.24-7.97,2.51-6.55,12.88-5.88,19.28,.91,8.54,3.02,16.9,4.1,25.41-7.05,.51-13.94,1.28-20.63,3.5,.27-.09-.06-8.04-.05-8.61,.14-13.81,.93-27.65,.78-41.45-.04-3.87,.21-8.09-.89-11.83-1.66-5.67-6.58-8.69-12.39-7.91-4,.54-7.84,4.23-8.1,7.93-.24,3.31-.4,6.63-.5,9.95-.31,10.08-.5,20.17-.86,30.26-.36,10-1.07,19.99-1.26,29.99v.4c-.25,13.01-.42,26.2,1.29,39.12,.74,5.6,2.15,11.52,6.33,15.55,2.08,2.11,5.01,3.15,7.96,2.81,3.51-.53,6.32-3.35,7.82-6.56,1.74-3.74,2.17-8.14,2.53-12.21,.57-6.48,.4-13.01-.5-19.46-.24-1.76-.82-3.88,1.1-4.76,6.22-2.76,12.71-4.86,19.37-6.25,.2-.01,.4,0,.6,.05,.04,.26,.08,.45,.11,.65,.57,4.15,.6,8.41,.77,12.59,.1,2.52,.15,5.05,.32,7.57,.3,4.71-.44,9.27,3.88,13.31,.85,.78,1.8,1.45,2.82,1.99,3.12,1.76,6.73,2.45,10.28,1.96,2.05-.31,3.97-1.22,5.51-2.61,1.69-1.74,2.86-3.93,3.37-6.3,1.72-6.63-.15-13.36-1.39-19.9-.92-4.85-2.17-9.63-2.94-14.5Z"/>
        <path class="cls-1" d="M245.28,108.26c15.35-17.71,14.86-48.66-5.72-62.52-10.57-7.12-22.09-9.37-33.73-3.31-8.93,4.71-16.17,12.08-20.74,21.09-2.05,4.16-3.16,8.72-3.25,13.36-.1,5.29,.57,10.57,2,15.66,1.4,5.7,3.75,11.12,6.96,16.04,3.79,5.68,9.38,9.92,15.88,12.02,14.15,4.44,28.98-1.24,38.59-12.33Zm-16.49-13.28c-3.58,3.58-9.12,5.53-13.87,3.79-6.15-2.26-9.32-8.52-9.96-14.73-.78-7.65,1.82-17.37,9.26-20.99,1.79-.87,3.73-1.35,5.72-1.42,5.65-.21,10.93,2.82,13.59,7.82,4.23,8.09,1.57,19.22-4.74,25.54Z"/>
        <path class="cls-1" d="M280.61,142.43c5.4,1.74,11.95,3.3,17.2,.27,5.3-3.08,7.11-9.87,4.03-15.17-.22-.38-.47-.75-.73-1.1-5.17-6.88-17.59-6.67-19.14-16.57-1.92-12.23,1.61-26.13,3.54-38.2,2.07-12.94,4.3-25.9,4.98-39.01,.36-6.91,.94-15.93-7.58-17.62-5.86-1.03-11.75,1.64-14.82,6.74-2.51,4.55-2.98,9.9-3.43,15.06-1.41,15.96-3.24,31.89-5.68,47.72-1.14,6.48-1.92,13.01-2.33,19.57-.35,5.91,.3,11.84,1.9,17.54,3.32,11.11,11.36,17.32,22.07,20.77Z"/>
        <path class="cls-2" d="M254.85,13.68c-.25-2.53-1.55-4.83-3.57-6.37-1.52-.99-3.17-1.74-4.92-2.22-9.78-3.1-20.12-3.89-30.36-4.5-12.71-.77-25.92-1.2-38.45,1.44-7.33,1.54-15.35,2.58-22.22,5.78-4.67,2.17-11.43,6.5-8.51,12.65,2.15,4.53,9.53,6.7,14.04,7.51,5.3,.96,10.73,.79,16.12,.78,12.88-.02,25.76,.92,38.64,.67,10.92-.21,24.47-.29,34.1-5.87,3.84-2.23,5.76-5.74,5.12-9.87Zm-11.9,1.71c-7.54,2.2-15.51,2.28-23.37,2.31-14.16,.05-28.32-.03-42.47-.11-5.67-.14-11.32-.57-16.94-1.29-.21-.04-3.52-.38-3.53-.94,0-.59,3.5-1.34,3.92-1.46,2.4-.7,4.82-1.35,7.22-2.06,6.19-1.85,12.57-3.02,19.01-3.49,11.93-.73,23.91-.18,35.72,1.64,4.06,.58,8.11,1.24,12.17,1.8,2.83,.39,7.19,.62,9.28,2.86-.21,.39-.59,.67-1.02,.75h0Z"/>
      </g>
    </g>
  </g>
</svg>