<?xml version="1.0" encoding="UTF-8"?><svg xmlns="http://www.w3.org/2000/svg" viewBox="0 0 836 157.91"><defs><style>.d{fill:#fff;}.e{fill:#095542;}.f{fill:#fdeff5;}</style></defs><g id="a"/><g id="b"><g id="c"><path class="f" d="M343.31,148.04v-28.96h4.16l8.26,27.37h-.09v-27.37h2.49v28.96h-4.16l-8.26-27.44h.06v27.44h-2.47Z"/><path class="f" d="M361.27,148.04v-28.96h10.94v1.87h-8.41v11.3h8.01v1.8h-8.01v12.12h8.41v1.87h-10.94Z"/><path class="f" d="M379.87,148.04v-27.09h-5.21v-1.87h12.96v1.87h-5.24v27.09h-2.51Z"/><path class="f" d="M399.03,148.04l-3.44-28.96h2.67l2.87,27.2,3.82-27.2h3.23l3.82,27.2,2.91-27.2h2.67l-3.43,28.96h-3.91l-3.64-27.14-3.69,27.14h-3.89Z"/><path class="f" d="M424.96,148.04v-27.09h-5.21v-1.87h12.96v1.87h-5.24v27.09h-2.51Z"/><path class="f" d="M433.5,144.97h2.4v3.07h-2.4v-3.07Z"/><path class="f" d="M452.63,148.04v-7.28h-7.38v-1.78l5.81-19.93h4.06v19.89h2.27v1.8h-2.27v7.28l-2.49,.02Zm-4.89-9.08h4.89v-18.11h.02l-4.92,18.11Z"/><path class="f" d="M459.52,134.84v-15.77h10.96v1.87h-8.5v13.9h-2.46Zm5.54,13.45c-2.43,0-3.96-.8-4.59-2.39-.71-2.09-1.02-4.29-.94-6.49h2.47c-.11,1.87,.14,3.74,.72,5.51,.2,.47,.54,.87,.97,1.14,.44,.27,.95,.4,1.46,.36,.52,.02,1.02-.12,1.46-.39,.44-.28,.78-.68,.98-1.15,.68-2.35,.94-4.81,.76-7.25,.16-2.17-.08-4.36-.73-6.44-.19-.42-.5-.77-.89-1.01-.39-.24-.84-.37-1.3-.36-.5-.02-.99,.1-1.44,.33-.44,.23-.81,.58-1.08,1-.65,1.11-.97,2.38-.92,3.67h-1.44c-.08-1.82,.51-3.61,1.66-5.03,.51-.58,1.15-1.04,1.86-1.35,.71-.31,1.48-.45,2.26-.43,.75-.08,1.51,.09,2.16,.48,.65,.39,1.16,.97,1.46,1.67,.73,2.41,1.03,4.93,.89,7.44,.16,2.8-.19,5.6-1.01,8.28-.67,1.6-2.26,2.4-4.76,2.4Z"/><path class="f" d="M485.2,148.19c-.94,.04-1.86-.24-2.63-.8-.77-.55-1.32-1.35-1.57-2.25-1.5-6.54-1.5-13.33,0-19.87,.25-.91,.81-1.7,1.57-2.25,.76-.55,1.69-.83,2.63-.79,.79-.02,1.58,.12,2.32,.4,.74,.28,1.41,.71,1.98,1.26,.53,.45,.96,1.01,1.26,1.64,.3,.63,.47,1.32,.49,2.01l-1.1,1.48c0-1.23-.43-2.42-1.2-3.38-.32-.47-.75-.86-1.25-1.13-.51-.27-1.07-.42-1.64-.42-1.2,0-2.11,.74-2.74,2.22-1.25,5.87-1.25,11.93,0,17.8,.62,1.48,1.54,2.22,2.74,2.22,.57,0,1.14-.16,1.64-.43,.5-.27,.93-.67,1.25-1.15,.77-.97,1.2-2.17,1.2-3.42l1.1,1.52c-.02,.7-.19,1.38-.49,2.01-.3,.63-.73,1.19-1.26,1.64-.57,.55-1.25,.98-1.98,1.27-.74,.29-1.53,.43-2.32,.41Zm1.03,9.71c-1.2,.05-2.39-.21-3.46-.76-.94-.56-1.64-1.44-1.98-2.47-.47-1.47-.69-3.01-.63-4.55h2.47c-.03,1.17,.12,2.34,.44,3.47,.21,.76,.64,1.44,1.25,1.94,.56,.42,1.25,.64,1.95,.62,.54,0,1.08-.13,1.56-.37,.51-.28,.94-.7,1.23-1.21,.39-.68,.66-1.42,.81-2.18,.21-1.11,.31-2.25,.29-3.38v-22.5l.17-4.04h2.31v26.54c.03,1.43-.11,2.85-.41,4.25-.2,.99-.62,1.93-1.22,2.75-.52,.67-1.21,1.17-2,1.47-.89,.31-1.83,.46-2.78,.44Z"/><path class="e" d="M50.47,23.92s-23.83,2.93-26.13,22.14c-2.3,19.21-9.65,48.43,12.78,48.43,22.43,0,153.96-6.58,201.17-6.91,47.21-.32,221.36,4.65,268.43,4.87,47.07,.22,173.35,5.18,201.98,5.21,28.63,.03,108.61,8.7,108.73-16.19,.12-24.89,7.82-53.89-21.85-54.04-29.67-.14-199.1-5.09-227.34-5.22l-305.24-1.44c-76.01-.36-212.53,3.14-212.53,3.14Z"/><path class="d" d="M52.44,40.96l7.16,22.52h.27l7.18-22.52h6.95l-10.22,29.64h-8.08l-10.23-29.64h6.96Zm25.13,29.64v-29.64h19.97v5.17h-13.71v7.06h12.68v5.17h-12.68v7.08h13.76v5.17h-20.03Zm44.61-20.06c-.2-.7-.49-1.33-.85-1.87-.37-.55-.82-1.01-1.35-1.39-.52-.39-1.12-.68-1.79-.88-.67-.2-1.4-.3-2.21-.3-1.52,0-2.85,.38-3.99,1.13-1.14,.75-2.03,1.85-2.66,3.29-.64,1.43-.95,3.17-.95,5.24s.31,3.82,.94,5.27c.63,1.45,1.51,2.55,2.66,3.31,1.15,.75,2.5,1.13,4.07,1.13,1.42,0,2.63-.25,3.63-.75,1.01-.51,1.79-1.23,2.32-2.16,.54-.93,.81-2.02,.81-3.29l1.27,.19h-7.64v-4.72h12.4v3.73c0,2.61-.55,4.84-1.65,6.72-1.1,1.86-2.61,3.3-4.54,4.31-1.93,1-4.14,1.51-6.63,1.51-2.78,0-5.22-.61-7.32-1.84-2.1-1.23-3.74-2.99-4.92-5.25-1.17-2.28-1.75-4.98-1.75-8.1,0-2.4,.35-4.54,1.04-6.43,.7-1.89,1.69-3.49,2.95-4.8,1.26-1.31,2.74-2.31,4.41-3,1.68-.69,3.5-1.03,5.46-1.03,1.68,0,3.24,.25,4.69,.74,1.45,.48,2.73,1.17,3.85,2.06,1.13,.89,2.05,1.94,2.76,3.17,.71,1.22,1.17,2.56,1.37,4.02h-6.37Zm15.54,20.06h-6.71l10.23-29.64h8.08l10.22,29.64h-6.71l-7.42-22.87h-.23l-7.44,22.87Zm-.42-11.65h15.86v4.89h-15.86v-4.89Zm50.59-17.99v29.64h-5.41l-12.89-18.65h-.22v18.65h-6.27v-29.64h5.5l12.79,18.64h.26v-18.64h6.24Z"/><path class="d" d="M225.79,70.6h-6.72l10.23-29.64h8.08l10.22,29.64h-6.72l-7.42-22.87h-.23l-7.44,22.87Zm-.42-11.65h15.86v4.89h-15.86v-4.89Zm25.8,11.65v-29.64h6.27v24.47h12.71v5.17h-18.97Zm23.12,0v-29.64h6.27v24.47h12.71v5.17h-18.97Zm57.35-29.64v29.64h-5.41l-12.89-18.65h-.22v18.65h-6.27v-29.64h5.5l12.79,18.64h.26v-18.64h6.24Zm10.29,29.64h-6.71l10.23-29.64h8.08l10.22,29.64h-6.71l-7.42-22.87h-.23l-7.44,22.87Zm-.42-11.65h15.86v4.89h-15.86v-4.89Zm21.05-12.82v-5.17h24.34v5.17h-9.07v24.47h-6.19v-24.47h-9.07Zm46.66-5.17h6.27v19.25c0,2.16-.52,4.05-1.55,5.67-1.02,1.62-2.46,2.88-4.3,3.79-1.84,.9-3.99,1.35-6.44,1.35s-4.61-.45-6.45-1.35c-1.84-.91-3.28-2.17-4.3-3.79-1.02-1.62-1.53-3.51-1.53-5.67v-19.25h6.27v18.71c0,1.13,.25,2.13,.74,3.01,.5,.88,1.21,1.57,2.11,2.07,.91,.5,1.96,.75,3.17,.75s2.27-.25,3.17-.75c.91-.5,1.61-1.19,2.1-2.07,.5-.88,.75-1.88,.75-3.01v-18.71Zm11.42,29.64v-29.64h11.69c2.24,0,4.15,.4,5.73,1.2,1.59,.79,2.8,1.92,3.63,3.37,.84,1.45,1.26,3.15,1.26,5.11s-.42,3.66-1.27,5.08c-.85,1.41-2.08,2.49-3.69,3.24-1.6,.75-3.54,1.13-5.82,1.13h-7.83v-5.04h6.82c1.2,0,2.19-.16,2.98-.49,.79-.33,1.38-.82,1.77-1.48,.4-.66,.59-1.47,.59-2.45s-.2-1.81-.59-2.49c-.39-.68-.98-1.19-1.78-1.53-.79-.36-1.79-.54-3-.54h-4.23v24.52h-6.27Zm16.01-13.49l7.37,13.49h-6.92l-7.21-13.49h6.76Zm15.85,13.49h-6.71l10.23-29.64h8.08l10.22,29.64h-6.72l-7.42-22.87h-.23l-7.44,22.87Zm-.42-11.65h15.86v4.89h-15.86v-4.89Zm25.79,11.65v-29.64h6.27v24.47h12.7v5.17h-18.97Z"/><path class="d" d="M533.26,70.6v-29.64h19.97v5.17h-13.7v7.06h12.68v5.17h-12.68v7.08h13.76v5.17h-20.03Zm49.75-29.64v29.64h-5.42l-12.89-18.65h-.22v18.65h-6.27v-29.64h5.5l12.79,18.64h.26v-18.64h6.24Zm5.17,29.64v-29.64h19.97v5.17h-13.71v7.06h12.68v5.17h-12.68v7.08h13.77v5.17h-20.03Zm24.95,0v-29.64h11.69c2.24,0,4.15,.4,5.73,1.2,1.59,.79,2.8,1.92,3.64,3.37,.84,1.45,1.26,3.15,1.26,5.11s-.43,3.66-1.28,5.08c-.85,1.41-2.08,2.49-3.69,3.24-1.6,.75-3.54,1.13-5.82,1.13h-7.83v-5.04h6.82c1.2,0,2.19-.16,2.98-.49,.79-.33,1.38-.82,1.77-1.48,.39-.66,.59-1.47,.59-2.45s-.2-1.81-.59-2.49c-.39-.68-.98-1.19-1.78-1.53-.79-.36-1.79-.54-3-.54h-4.22v24.52h-6.27Zm16.01-13.49l7.37,13.49h-6.92l-7.2-13.49h6.75Zm30.4-6.57c-.2-.7-.49-1.33-.85-1.87-.37-.55-.81-1.01-1.35-1.39-.52-.39-1.12-.68-1.79-.88-.67-.2-1.4-.3-2.22-.3-1.51,0-2.84,.38-3.99,1.13-1.14,.75-2.03,1.85-2.67,3.29-.64,1.43-.95,3.17-.95,5.24s.31,3.82,.94,5.27c.63,1.45,1.51,2.55,2.66,3.31,1.15,.75,2.51,1.13,4.07,1.13,1.42,0,2.63-.25,3.64-.75,1.01-.51,1.78-1.23,2.31-2.16,.54-.93,.81-2.02,.81-3.29l1.28,.19h-7.64v-4.72h12.41v3.73c0,2.61-.55,4.84-1.65,6.72-1.1,1.86-2.62,3.3-4.54,4.31-1.93,1-4.14,1.51-6.63,1.51-2.78,0-5.22-.61-7.32-1.84-2.1-1.23-3.74-2.99-4.92-5.25-1.17-2.28-1.75-4.98-1.75-8.1,0-2.4,.35-4.54,1.04-6.43,.7-1.89,1.69-3.49,2.95-4.8,1.26-1.31,2.74-2.31,4.41-3,1.68-.69,3.5-1.03,5.46-1.03,1.68,0,3.24,.25,4.69,.74,1.45,.48,2.73,1.17,3.85,2.06,1.13,.89,2.05,1.94,2.76,3.17,.71,1.22,1.17,2.56,1.37,4.02h-6.37Zm8.42-9.58h7.02l6.76,12.76h.29l6.76-12.76h7.02l-10.81,19.16v10.48h-6.23v-10.48l-10.81-19.16Zm40.7,29.64v-29.64h11.87c2.18,0,4,.32,5.46,.97,1.46,.65,2.55,1.54,3.28,2.69,.73,1.14,1.1,2.45,1.1,3.94,0,1.16-.23,2.18-.69,3.05-.46,.87-1.1,1.58-1.91,2.14-.8,.55-1.72,.94-2.75,1.17v.29c1.13,.05,2.18,.37,3.17,.96,1,.59,1.8,1.41,2.42,2.47,.62,1.05,.93,2.31,.93,3.76,0,1.57-.39,2.98-1.17,4.21-.77,1.22-1.91,2.19-3.43,2.91-1.51,.71-3.38,1.07-5.6,1.07h-12.66Zm6.27-5.12h5.11c1.75,0,3.02-.33,3.82-1,.8-.68,1.2-1.57,1.2-2.69,0-.82-.2-1.54-.6-2.17-.4-.63-.96-1.12-1.69-1.48-.73-.36-1.59-.54-2.59-.54h-5.25v7.87Zm0-12.11h4.65c.86,0,1.62-.15,2.29-.45,.68-.31,1.21-.74,1.59-1.3,.4-.56,.59-1.23,.59-2.01,0-1.07-.38-1.93-1.14-2.59-.75-.66-1.82-.98-3.21-.98h-4.76v7.34Zm25.79,17.24h-6.71l10.23-29.64h8.08l10.22,29.64h-6.72l-7.42-22.87h-.23l-7.44,22.87Zm-.42-11.65h15.86v4.89h-15.86v-4.89Zm25.79,11.65v-29.64h11.69c2.24,0,4.15,.4,5.73,1.2,1.59,.79,2.8,1.92,3.64,3.37,.84,1.45,1.26,3.15,1.26,5.11s-.43,3.66-1.28,5.08c-.85,1.41-2.08,2.49-3.69,3.24-1.6,.75-3.54,1.13-5.82,1.13h-7.83v-5.04h6.82c1.2,0,2.19-.16,2.98-.49,.79-.33,1.38-.82,1.77-1.48,.4-.66,.59-1.47,.59-2.45s-.2-1.81-.59-2.49c-.39-.68-.98-1.19-1.78-1.53-.79-.36-1.79-.54-3-.54h-4.22v24.52h-6.27Zm16.01-13.49l7.36,13.49h-6.92l-7.2-13.49h6.76Z"/><path class="d" d="M506.49,73.17c-.16-.05-.32-.13-.44-.24-.89-.74-.37-2.01,.57-4,1.1-2.17,2.03-4.41,2.78-6.72-3.08,.08-4.45,0-5.05-.93-.13-.21-.21-.44-.22-.69-.01-.24,.04-.49,.15-.71,.35-.73,2.99-8.73,4.57-13.59l.15-.44,.41-.21c1.74-.69,3.65-.84,5.48-.44,.78,.11,7.68,1.18,8.14,2.85l.2,.7-.59,.56c-.52,.53-4.14,5.25-5.6,7.53,3.97,.4,4.89,.69,5.19,1.58l.24,.68-.57,.65c-.13,.12-13.14,12.56-13.79,12.96-.22,.19-.48,.33-.75,.41-.28,.08-.57,.1-.85,.06Zm4.49-13.22l.53,.65c.53,.89,.31,2.35-2.3,8.04,2.85-2.67,7.56-7.15,9.83-9.34-1.01-.15-2.28-.27-2.84-.32-.44-.04-.81-.08-.97-.1l-.72-.11-.26-.75c-.39-1.33,3.95-6.87,5.94-9.31-1.85-.58-3.74-1.02-5.66-1.33-1.24-.22-2.51-.18-3.74,.11-.82,2.53-3.18,9.76-4.15,12.43,.83,.07,2.1,.04,2.67,0h1.05l.61,.05Z"/><path class="d" d="M213.1,50.86c-.18-1.45-.31-1.66-1.83-1.66-2.39-.02-4.75,.54-6.87,1.63-2.13,1.09-3.96,2.67-5.34,4.62-2.26,3.17-3.65,6.88-4,10.76-.05,.42-.08,.84-.08,1.25,.03,.62-.06,1.25-.25,1.84-.35,.6-.83,1.12-1.41,1.5-.28,.23-.57,.44-.85,.72l.25,.25-.32-.18c-.04,.05-.09,.12-.15,.18-.24,.27-.73,.83-.21,1.41,.07,.11,.17,.19,.28,.25,.11,.05,.24,.08,.37,.07,.37-.05,.72-.23,.97-.51l.08-.06c.57-.5,1.14-1.03,1.7-1.55,.29-.26,.58-.53,.87-.8,.05,.09,.11,.18,.18,.26,.15,.16,.35,.27,.57,.31,.22,.04,.44,0,.64-.09,.53-.21,1.05-.4,1.59-.61,1.97-.68,3.88-1.53,5.7-2.54,3.59-2,6.31-5.28,7.61-9.18,.77-2.55,.95-5.25,.52-7.88Zm-2.34,8.29c-1.63,3.45-4.46,6.2-7.95,7.73-1.21,.57-2.49,1.05-3.73,1.51l-1,.38c.11-.11,.2-.23,.29-.36,.36-.5,.79-.95,1.27-1.33,.23-.16,.49-.33,.74-.48l.44-.28c1.16-1.06,2.19-2.27,3.06-3.58,.11-.17,.23-.32,.35-.49,.74-1.15,1.5-2.38,2.07-3.28,.38-.61,.67-1.08,.8-1.27,.13-.19,.28-.39,.47-.64l.15-.29-.22-.22-.17-.08-.27-.03h-.03c-.24,0-.49,.25-1.78,1.7-.62,.74-1.29,1.43-2.02,2.06-1.81,1.86-3.5,3.82-5.06,5.89-.42,.4-.84,.81-1.29,1.26,.09-1,.23-2,.44-2.98,.46-3.19,1.79-6.2,3.82-8.7,2.57-2.97,6.13-4.89,10.02-5.4l.56-.08c.05,.21,.08,.43,.09,.65,.44,2.82,.07,5.71-1.05,8.33Z"/><path class="e" d="M198.29,98.48c-3.88,0-7.77-.27-11.61,.05-9.34,.78-18.76,.37-28.1,1.29-5.13,.51-10.31,.36-15.46,.56-7.15,.28-14.27,1.02-21.44,1.11-5.13,.07-10.23,.74-15.36,1.24-2.36-.16-4.72,.12-6.98,.82-.41,.2-1.12,.04-.94,.8,.18,.77,.76,.44,1.24,.36,.54-.18,1.1-.3,1.66-.35,6.75,.37,13.42-.85,20.15-.85,13.83,0,27.64-1.02,41.46-1.39,17.18-.44,34.37-1.01,51.56-1.54,.57-.03,1.12-.15,1.65-.36,.21-.06,.39-.19,.51-.37,.13-.18,.19-.39,.18-.61-.06-.65-.56-.77-1.09-.78h-17.42v.03Z"/><path class="e" d="M556.03,108.76h4.8c19.24,.04,38.52-.36,57.69,.21,23.29,.69,46.61,.03,69.84,.74,17.31,.53,34.67,.17,51.94,1.05,2.02,.1,5.21,.16,5.25-.89,.06-1.57-3.2-.99-5.17-1.05-12.14-.42-24.29-.81-36.44-1.19-1.33-.04-2.71-.15-4.05-.14-36.31,.33-72.57-1.06-108.87-.73-10.41,.1-20.79,.8-31.23,.65-.69-.07-1.38,.01-2.03,.24-.65,.23-1.24,.61-1.73,1.09Z"/><path class="e" d="M827.34,122.47c-.82-5.04-2.99-9.75-6.27-13.66-.34-.39-.85-1.27-1.55-.59-.55,.53,.21,1.04,.44,1.47,2.16,4.02,3.78,8.3,4.83,12.74,.09,.42,.09,.85,0,1.27-.3,1.52-1.02,2.1-2.32,.85-2.37-2.36-4.21-5.19-5.43-8.31-1.59-3.73-2.37-7.76-2.27-11.82,.04-1.01,.05-2.29-1.33-2.22-1.14,.05-1.46,1.23-1.5,2.28-.37,7.96,2.35,15.75,7.6,21.75,.09,.11,.21,.19,.31,.29,.57,.79,1.37,1.39,2.29,1.7,.93,.31,1.92,.32,2.85,.03,2.16-.85,2.34-2.87,2.34-5.76Z"/><path class="e" d="M30.03,12.85c.41-3.95-.66-7.91-2.99-11.12-.51-.75-1.26-1.3-2.13-1.56-.87-.26-1.8-.21-2.64,.13-.79,.33-1.45,.91-1.89,1.64-.44,.74-.64,1.59-.56,2.44-.18,3.41,.32,6.82,1.45,10.04,.29,.8,.57,1.89,1.63,1.51,1.05-.38,.28-1.3,.14-2.02-.37-3.19-.46-6.41-.27-9.62-.03-.29,.06-.58,.24-.81,.18-.23,.45-.37,.74-.41,.64-.11,1.01,.23,1.4,.75,1.07,1.51,1.72,3.27,1.89,5.11,.62,4.11,.04,8.3-1.66,12.09-.32,.55-.46,1.18-.4,1.81,.14,.89,.48,1.39,1.58,.77,.81-.46,1.44-1.18,1.8-2.03,1.34-2.7,1.92-5.72,1.67-8.73Z"/><path class="e" d="M573.43,119.32c2.3,.64,4.68,.88,7.06,.73,28.43-.09,56.86-.2,85.29-.32,.81,0,1.63,0,2.44-.04,1.48-.07,3.22-.03,3.19-1.17-.04-1.33-2.09-.87-3.36-.89-28.44-.44-56.83,.72-85.26,.72-2.89,0-5.77,.57-9.36,.96Z"/><path class="e" d="M6.26,8.88c-.75-.11-1.51,0-2.21,.29-.69,.3-1.29,.78-1.73,1.4-.44,.62-.7,1.34-.75,2.1-.05,.75,.11,1.51,.45,2.18,.93,2.58,2.48,4.89,4.5,6.73,2.03,1.84,4.47,3.16,7.13,3.84,.7,.16,1.42,.17,2.12,.04,.25-.05,.48-.18,.65-.37,.17-.19,.28-.42,.31-.68,.11-.61-.29-.81-.81-1.04-1.42-.61-2.81-1.31-4.2-2.01-3.02-1.62-5.41-4.21-6.76-7.36-.81-1.65-.3-2.18,1.39-2.27,.88-.13,1.78,0,2.59,.37,.81,.37,1.49,.97,1.97,1.73,.32,.5,.65,1.18,1.26,.73,.54-.4,.36-1.21,.14-1.81-.51-1.18-1.36-2.18-2.44-2.87-1.08-.69-2.34-1.04-3.62-1.01Z"/><path class="e" d="M156.58,114.51h16.96c.57,.01,1.14,0,1.71-.05,.8-.09,1.73-.24,1.7-1.25-.04-1.22-1.13-.83-1.83-.85-12.24-.38-24.45,.94-36.69,.74-.54,0-1.49-.34-1.42,.72,.06,.94,.95,.69,1.53,.69,6.01,.01,12.02,.02,18.03,0Z"/><path class="e" d="M825.73,97.55c2.27,.72,4.24,2.14,5.65,4.06,.44,.51,1.3,1.08,.83,1.78-.4,.61-1.39,.38-2.01,.13-2.38-.72-4.61-1.85-6.6-3.35-.41-.5-1-.83-1.64-.92-1.08,0-1.68,.24-1.03,1.51,.65,1.18,1.54,2.22,2.59,3.06,1.05,.84,2.26,1.46,3.56,1.83,2.22,.76,4.4,2.12,6.95,1,2.14-.94,2.56-2.45,1.11-4.28-1.74-2.33-3.96-4.25-6.52-5.62-.23-.17-.5-.29-.78-.35-.28-.06-.58-.04-.86,.03s-.54,.22-.76,.41c-.22,.19-.39,.43-.5,.7Z"/><path class="e" d="M0,29.5c-.04,3.21,2.67,4.67,5.53,5.46,.92,.16,1.85,.19,2.78,.12,.67,0,1.39-.05,1.43-.89,.04-.84-.4-1.14-1.29-1.3-1.82-.26-3.55-.98-5.01-2.1-1.58-1.28-1.48-2.1,.29-3.03,.34-.18,.63-.28,.62-.7,0-.59-.47-.61-.89-.71C1.23,25.75-.08,26.95,0,29.5Z"/></g></g></svg>