<?xml version="1.0" encoding="UTF-8"?><svg xmlns="http://www.w3.org/2000/svg" viewBox="0 0 266.7 207.97"><defs><style>.d{fill:#f0ad35;}.e{fill:#e89024;}.f{fill:#e5af34;}.g{fill:#f4b840;}.h{fill:#ea9f28;}.i{fill:#e68325;}</style></defs><g id="a"/><g id="b"><g id="c"><path class="f" d="M218.51,201.47s38.91-15.26,44.56-48.43c5.64-33.17,9.79-92.22-28.62-109.42S75.04-12.66,51.53,4.08,9.87,49.26,2.61,87.27c-7.27,38-.63,76.62,36.43,87.58,37.07,10.96,116.37,34.69,144.25,33.04,27.88-1.64,35.22-6.42,35.22-6.42Z"/><path class="g" d="M239.55,151.8s15.76-28.34,13.13-45.99c-2.63-17.65-5.32-36.37-12.75-46.62-7.43-10.25-59.32-33.69-93.26-39.88C112.74,13.1,46.84-16.14,34.41,49.25c-12.43,65.39-26.27,95.93,15.59,118.05,41.86,22.11,161.41,42.26,189.56-15.5Z"/><path class="d" d="M209.44,162.38s23.58-13.94,25.92-35.87c2.34-21.93,3.92-46.18-18.76-66.05-22.68-19.88-65.04-30.84-96.72-35.99-31.68-5.16-71.5,5.05-76.43,33.44-4.93,28.4-20.28,63.35-2.45,78.07,17.83,14.72,42.36,28.73,90.75,31.78,48.39,3.04,66.75,1.56,77.69-5.37Z"/><path class="h" d="M188.67,157.77s24.92-9.77,28.54-31.02c3.61-21.25,6.27-59.06-18.33-70.08-24.6-11.01-102.1-36.04-117.16-25.32-15.06,10.72-26.68,28.94-31.33,53.28-4.65,24.34-.4,49.07,23.33,56.09,23.74,7.02,74.53,22.21,92.38,21.16,17.85-1.05,22.56-4.11,22.56-4.11Z"/><path class="e" d="M177.62,151.57s20.71-14.55,24.49-28.5c3.78-13.95,2.08-44.51-3.71-50.61-5.79-6.11-104.23-44.72-117.73-19-13.5,25.73-25.75,56.42-14.87,64.75,10.88,8.33,43.04,34.5,111.82,33.36Z"/><path class="i" d="M150.71,136.56s34.86-1.24,37.7-17.51,.8-33.63-25.69-46.3c-26.49-12.67-74.24-13.83-79.89-1.62s-3.6,39.29,15.52,50.77c19.12,11.48,45.31,15.17,52.36,14.66Z"/></g></g></svg>